# xmcd
#
# Track frame offsets: 
#        150
#        10310
#        20095
#        31096
#        43068
#        54508
#        66898
#        78747
#        88949
#        100514
#        112260
#        121820
#        133595
#        148561
#        157267
#        168864
#        182338
#        194616
#        204660
#        216490
#
# Disc length: 3041 seconds
#
# Revision: 0
# Processed by: cddbd v1.5.2PL0 Copyright (c) Steve Scherf et al.
# Submitted via: ExactAudioCopyFreeDBPlugin 1.0
#
DISCID=240bdf14
DTITLE=Stonewall Jackson - Life Of A Poor Boy: RCA Country Hits 1958-1
DTITLE=972 [CD2]
DYEAR=2011
DGENRE=Country
TTITLE0=Trouble And Me
TTITLE1=Lost In The Shuffle
TTITLE2=Poor Red Georgia Dirt
TTITLE3=If This House Could Talk
TTITLE4=The Minute Men (Are Turning In Their Graves)
TTITLE5=Blues Plus Booze (Means I Lose)
TTITLE6=Help Stamp Out Loneliness
TTITLE7=Promises And Hearts (Were Made To Break)
TTITLE8=This World Holds Nothing (Since You're Gone)
TTITLE9=Nothing Takes The Place Of Loving You
TTITLE10=I Believe In Love
TTITLE11=Angry Words
TTITLE12=Somebody's Always Leaving
TTITLE13="Never More" Quote The Raven
TTITLE14=Ship In A Bottle
TTITLE15=Better Days For Mama
TTITLE16=Born That Way
TTITLE17=I'm Not Strong Enough (To Build Another Dream)
TTITLE18=Me And You And A Dog Named Boo
TTITLE19=Torn From The Pages Of Life
EXTD=
EXTT0=
EXTT1=
EXTT2=
EXTT3=
EXTT4=
EXTT5=
EXTT6=
EXTT7=
EXTT8=
EXTT9=
EXTT10=
EXTT11=
EXTT12=
EXTT13=
EXTT14=
EXTT15=
EXTT16=
EXTT17=
EXTT18=
EXTT19=
PLAYORDER=
